<svg width="82" height="15" viewBox="0 0 82 15" fill="none" xmlns="http://www.w3.org/2000/svg">
<path d="M40.3018 3.74899V5.22217H40.3468C40.877 4.43343 41.7572 3.50455 43.7083 3.50455C45.2261 3.50455 46.3905 4.27699 46.8895 5.4438H46.9345C47.3608 4.85388 47.8494 4.40736 48.3969 4.09121C49.0449 3.7164 49.7657 3.50129 50.6737 3.50129C52.7286 3.50129 54.548 4.83758 54.548 8.20763V14.599H51.4153V8.65415C51.4153 6.94631 50.7984 5.95876 49.5162 5.95876C48.5771 5.95876 47.8944 6.55194 47.6345 7.28201C47.5444 7.53297 47.5028 7.87519 47.5028 8.16201V14.6023H44.3701V8.41297C44.3701 6.9626 43.7776 5.9555 42.5127 5.9555C41.5008 5.9555 40.8666 6.70512 40.6067 7.3472C40.4958 7.62097 40.4612 7.93712 40.4612 8.23371V14.599H37.325V3.74899H40.3018ZM70.7175 3.74899V5.7958H70.8041C71.3793 4.23136 72.7447 3.50455 73.9437 3.50455C74.2452 3.50455 74.4116 3.52737 74.6541 3.573V6.41505C74.3665 6.37594 74.0997 6.33683 73.7254 6.33683C72.367 6.33683 71.4209 7.07994 71.1818 8.24349C71.1298 8.48467 71.1125 8.74541 71.1125 9.04526V14.6023H67.8966V3.74899H70.7175ZM79.0205 0.154053V3.56974H81.7374V6.33357H79.0205V10.4109C79.0205 11.7309 79.3774 12.3697 80.4379 12.3697C80.9369 12.3697 81.3042 12.311 81.623 12.2361L81.6646 14.5273C81.2384 14.6772 80.3304 14.8402 79.4086 14.8402C78.324 14.8402 77.4195 14.4849 76.8685 13.9341C76.2378 13.3051 75.9467 12.2752 75.9467 10.8085V0.154053H79.0205ZM35.1418 14.599H32.023V0.154053H35.1418V14.599ZM26.8249 10.7238C26.8249 10.9226 26.8076 11.1312 26.7487 11.3104C26.5061 12.0633 25.6779 12.6989 24.6452 12.6989C23.7823 12.6989 23.0961 12.2393 23.0961 11.2648C23.0961 9.77533 24.8427 9.36141 26.8284 9.37118V10.7238H26.8249ZM29.9403 8.12615C29.9403 5.66543 28.8244 3.50455 25.0506 3.50455C23.1135 3.50455 21.5748 4.01625 20.7362 4.47255L21.3496 6.44765C22.1154 5.99135 23.3387 5.61654 24.4962 5.61654C26.4125 5.61328 26.7244 6.63668 26.7244 7.29179V7.44823C22.5486 7.44171 19.9115 8.80082 19.9115 11.5712C19.9115 13.2627 21.2526 14.8467 23.5882 14.8467C25.0264 14.8467 26.2254 14.3089 26.9462 13.4452H27.0155C27.0155 13.4452 27.4937 15.3193 30.1205 14.6023C29.9819 13.82 29.9368 12.9889 29.9368 11.9884V8.12615H29.9403ZM4.24446 0.154053C4.56674 1.68264 5.4816 6.12172 5.4816 6.12172C5.86626 7.9469 6.21973 9.86007 6.48656 11.3724H6.53508C6.79498 9.76555 7.2039 8.24349 7.64053 6.35965L9.18263 0.154053H12.596L14.0376 6.51935C14.4154 8.28912 14.7168 9.65474 14.956 11.3007H15.001C15.2609 9.63844 15.6005 8.21741 15.9713 6.39876L17.3575 0.154053H20.6323L16.5743 14.599C13.9891 15.1303 12.998 14.1525 12.6445 12.6011C12.2911 11.0464 11.598 8.0903 11.598 8.0903C11.2411 6.47046 10.9638 5.32973 10.7698 3.66751H10.7213C10.444 5.31343 10.1529 6.4672 9.72323 8.08704L8.02173 14.6023C5.3811 15.0977 4.46624 14.3643 3.9603 12.3729C3.52366 10.6684 0.799866 0.157312 0.799866 0.157312H4.24446V0.154053ZM62.6986 10.7238C62.6986 10.9226 62.6812 11.1312 62.6223 11.3104C62.3797 12.0633 61.5515 12.6989 60.5188 12.6989C59.6559 12.6989 58.9698 12.2393 58.9698 11.2648C58.9698 9.77533 60.7164 9.36141 62.702 9.37118V10.7238H62.6986ZM65.8139 8.12615C65.8139 5.66543 64.6981 3.50455 60.9243 3.50455C58.9871 3.50455 57.4485 4.01625 56.6099 4.47255L57.2232 6.44765C57.9891 5.99135 59.2124 5.61654 60.3698 5.61654C62.2827 5.61328 62.5981 6.63668 62.5981 7.29179V7.44823C58.4257 7.44171 55.7886 8.80082 55.7886 11.5712C55.7886 13.2627 57.1331 14.8467 59.4654 14.8467C60.9 14.8467 62.1025 14.3089 62.8198 13.4452H62.8926C62.8926 13.4452 63.3708 15.3193 65.9976 14.6023C65.859 13.82 65.8139 12.9889 65.8139 11.9884V8.12615Z" fill="#555555"/>
</svg>
